<svg xmlns="http://www.w3.org/2000/svg" width="234.746" height="78.654" viewBox="0 0 234.746 78.654"><path d="M131.427,9.907h.4q4.649,7.08,5.459,10.514l-.2.2h-.607q-1.82-1.616-1.82-2.022h-.2v.2q4.649,25.68,4.65,29.116,0,6.066-5.257,8.29L128.6,58.232a23.442,23.442,0,0,0-11.323,9.7q-4.246,6.87-8.694,6.875h-.607q-4.45,0-6.066-5.661V65.106q0-1.82,3.842-9.3h-.2A165.584,165.584,0,0,0,89.776,71.172Q82.5,78.65,79.06,78.653H77.644q-5.459,0-6.47-8.29V69.352q0-4.654,3.437-10.716l.2-.4v-.809q-2.63.4-10.11,4.044a30.909,30.909,0,0,0-7.481,7.683q-4.047,6.066-8.492,6.066h-.607a6.312,6.312,0,0,1-6.47-4.65V65.915q0-2.63,7.077-14.355a17.581,17.581,0,0,1-3.842.809q-4.45,0-6.47-4.651-.607-2.63-2.224-2.628-1.417.2-4.448,3.437a8.28,8.28,0,0,0-1.415,2.831Q32.956,55.2,35.588,55.2q5.459,1.213,5.459,3.639v.2c0,1.75-.272,2.629-.809,2.629l-6.268-1.415H30.129Q22.85,62.68,19.615,67.129q-.607.607-6.672,7.279A9.4,9.4,0,0,1,7.079,76.43H6.472q-2.63,0-5.459-2.831A8.168,8.168,0,0,1,0,69.555V68.342q0-3.64,4.65-11.929v-.2A9.084,9.084,0,0,1,1.62,49.74V47.516q0-8.7,8.088-20.826l.809-.607.2.4q0,.607-4.65,9.5-2.63,6.672-2.629,9.5,0,5.658,3.033,6.47h.2q2.018,0,3.437-4.853l.2-.2h.4v.809A14.76,14.76,0,0,1,8.292,55.2q-3.441,1.82-3.437,3.437-3.843,6.468-3.842,9.1v2.022Q2.022,74,4.855,74q3.639,0,10.312-8.694a32.313,32.313,0,0,1,9.705-7.886L28.916,55.2l-.2-2.224q0-7.483,4.853-10.514a6.562,6.562,0,0,1,4.65-2.224q1.213,0,3.842,5.257,1.82,2.222,3.437,2.224,2.222,0,13.547-4.044v-.606q-3.237-1.015-10.11-3.438l-.607-.2-.809.809-7.886-.607q.607-4.449,3.639-4.448l1.82-.2h2.831q3.436,0,14.154,4.448a119.124,119.124,0,0,0,13.547,2.629l.2.4A12.706,12.706,0,0,1,73.6,46.1l-3.842-.607q-7.687,0-17.591,4.853-2.229,1.819-5.661,7.278-3.639,6.468-3.639,10.311,0,4.043,2.629,4.651h2.022q2.222,0,11.525-11.526,7.478-6.27,12.536-7.077,6.468-2.426,6.47-3.437V48.527q0-2.228-2.831-15.771Q72.99,19.008,71.983,14.963q.607-3.232,1.213-3.235h.2q5.658,9.507,5.661,10.716l-.4.4-2.831-2.426,3.842,23.05.4,4.044a14.5,14.5,0,0,1-3.437,9.705Q73.193,63.69,73.2,67.735v.4q0,4.246,2.831,5.661H77.24q5.862,0,20.017-15.771a141.926,141.926,0,0,1,11.929-9.3l.607-.4v-.2a24.649,24.649,0,0,1-8.694-5.257,9.729,9.729,0,0,1-1.011-3.842q0-3.237,4.448-4.448h2.629q7.478,0,25.881,3.235c.537,0,.809.2.809.607q-1.014,4.042-3.235,4.044-4.247,2.019-4.65,2.224a10.785,10.785,0,0,0-.809,4.044v.2l.809.809c.537,0,1.011-.606,1.415-1.82,0,.268.2.4.607.4v.2q-.607,3.436-1.011,3.437h-.607c-1.485-.4-2.224-1.011-2.224-1.82V47.718l.607-2.426v-.2q-8.7,3.232-8.694,3.437v.4a5.562,5.562,0,0,1,2.022,4.246v1.415l-.606.4h-.4q-3.033,0-4.65-3.437h-.4q-3.843,0-8.492,12.536a2.857,2.857,0,0,0-.4,1.618v2.022q.607,3.839,3.437,3.842,4.246,0,7.886-5.864,6.264-9.507,15.165-12.333,7.478-2.427,7.481-4.246,0-1.014-4.044-22.646a93.809,93.809,0,0,0-2.426-13.345,10.894,10.894,0,0,1,.809-3.235ZM15.974,54.39Q18.4,55.6,18.4,57.018q0,1.01-2.629,1.011,0,3.232-7.077,8.9A11.437,11.437,0,0,1,5.056,69.15l-.2-.2q9.705-9.3,9.705-10.312V55.6l1.415-1.213ZM68.14,12.738v.4q0,1.417-6.875,3.235Q30.733,26.69,15.974,34.979l-1.011.607c-.272,0-.4-.2-.4-.607q0-1.616,15.569-8.492Q44.079,20.422,65.31,13.345l2.831-.607ZM24.062,38.417c1.077.4,1.618.941,1.618,1.618v.606l-.4.4h-.4a2.214,2.214,0,0,1-.809-1.416q-1.621,0-2.022,8.088v.607l-.4.2h-.2q-.408,0-.809-2.426A10.461,10.461,0,0,0,18.6,43.673H16.176a2.126,2.126,0,0,1-.809-1.82.953.953,0,0,1,1.011-.809q3.033,0,4.65,4.448h.4V42.865a4.707,4.707,0,0,1,2.629-4.448ZM27.7,15.165a2.888,2.888,0,0,1,1.82,2.426l-.607.4h-.2L27.5,16.984q-1.62,0-2.831,8.9l-.2.2h-.2q-.607,0-1.213-3.033l-1.618-2.426-1.415.607h-.4q-2.023-.607-2.022-2.224V18.2c0-.268.471-.4,1.415-.4h.2q2.222,0,5.055,5.055h.2v-.4q.805-7.279,3.235-7.279Zm4.65,51.964q3.839,1.413,3.842,2.629,0,.806-1.82,3.842-.607,0-3.235-2.022H30.33L29.521,73.8l-.809.4q-4.047-1.82-4.044-2.628,0-1.015,1.82-4.044l3.842,2.224,2.022-2.629Zm1.82-37.81c.132,0,.2.4.2,1.213Q36.8,31.744,36.8,32.958v.809q-1.014,2.63-2.831,2.629h-.809q-1.213,0-1.213-1.415v-.607q1.616-5.052,2.224-5.055Zm-1.415,5.257.4.4c1.75-.268,2.629-.673,2.629-1.213v-.4a2.764,2.764,0,0,0-2.022-1.213Q33.161,32.149,32.756,34.575ZM43.27,9.907q3.839,0,3.842.607v.607q0,2.228-3.033,5.055Q40.638,18,39.024,18l-.4-.4a34.406,34.406,0,0,1,4.448-3.033v-.607H39.227l-1.415.4H37.2l-.4-.4q1.413-4.042,4.246-4.044Zm5.055,12.334.2.2A18.853,18.853,0,0,0,46.91,27.9a1.938,1.938,0,0,0,.607,1.415h.607c.132,0,.4-.673.809-2.022h.4l.2.4v.607a3.5,3.5,0,0,1-1.618,2.831q-2.228-.607-2.224-2.022V27.7A6.892,6.892,0,0,1,48.325,22.241Zm.4,37.608.607.4V61.67a2.889,2.889,0,0,1,2.426,1.82V64.3q0,2.018-2.831,2.831h-.607c-.809,0-1.213-.676-1.213-2.022A31.516,31.516,0,0,1,48.73,59.85Zm0,3.033-.4,1.416v1.011h.4a2.134,2.134,0,0,0,1.82-.809v-.2a12.077,12.077,0,0,0-1.82-1.415Zm7.886-11.323h1.011c.4,0,.607.268.607.809L57.222,55.6h1.011q1.82,0,5.257-4.044l.4.4q-.607,2.426-4.448,4.853a7.126,7.126,0,0,1-2.224.4h-.607a.957.957,0,0,1-.809-1.011l.809-2.831v-.2h-.809l-.4.4H55l-.4-.4a1.905,1.905,0,0,1,2.022-1.618Zm8.694-27.7A6.8,6.8,0,0,1,67.534,27.7v.607c0,1.213-.474,1.82-1.415,1.82a7.3,7.3,0,0,1-2.224-.607q0,1.621-2.629,1.82c-1.081-.132-1.618-.607-1.618-1.415V27.094l-1.415.809V27.3q.4-1.82,1.82-1.82l.607.4v3.437c0,.136.471.338,1.415.607h.2a1.187,1.187,0,0,0,.607-1.011v-.4l-.809-4.044h.607q.4,0,2.022,3.437l.4.4h1.011l.2-.4L64.7,24.465l.607-.607ZM62.883,66.926q3.839,1.01,4.448,8.29-.607,2.829-1.213,2.831l-.4-.4a7.671,7.671,0,0,0,.4-2.427v-.4q0-2.63-3.235-5.864l-.4-1.011c.131-.677.268-1.011.4-1.011ZM86.742,3.235c.941,0,1.415.4,1.415,1.213v.809Q86.944,8.091,84.72,8.088h-.607l-.2-.2h-.2L82.9,9.3l-.607-.2.2-1.415h-.2a3.111,3.111,0,0,0-1.415.809,1.744,1.744,0,0,1-1.415-.809h-.2a2.98,2.98,0,0,0-1.618.809h-.4v-.4q0-1.616,2.629-2.022a1.443,1.443,0,0,0,1.415.809h.2V3.842h.2q.4,0,1.415,2.224h.4c1.345-1.886,2.426-2.831,3.235-2.831ZM83.507,54.39l.2.2v.2q-2.024,6.266-2.022,8.088c.132.942.607,1.416,1.415,1.416s1.213-.676,1.213-2.022l.607-.4.2.2V63.69A3.148,3.148,0,0,1,82.9,66.925h-.4q-2.024,0-2.022-3.842,0-2.023,2.629-8.29l.4-.4Zm.607-43.269q4.445,6.27,5.257,10.11l-.2.607h-.607L86.54,19.613v.4l2.629,17.591a83.62,83.62,0,0,1,1.618,11.929q-.811,7.478-1.213,7.481h-.4q-.408,0-1.011-6.268-2.228-19.41-4.246-30.329A14.1,14.1,0,0,0,82.9,14.962Q83.507,11.124,84.114,11.121Zm.4-4.65h1.011a1.578,1.578,0,0,0,1.415-.607V4.853H85.933A5.922,5.922,0,0,0,84.518,6.47Zm15.165,64.5.2.2v.809q-.408,1.01-5.459,4.044-2.63,2.626-3.639,2.629l-.2-.2v-.809q2.625-3.238,8.9-6.673Zm2.831-68.341q1.413,0,3.639,4.853l.4,2.224v1.82h.2q1.616,0,9.705-4.448l1.213-.2h.2l.607.809V8.29q0,1.015-4.448,5.661a6.509,6.509,0,0,0-.809,2.831v.2q12.738-4.445,14.154-4.448l.2.2v.2q0,1.213-10.312,4.246-23.05,8.09-23.05,10.716v.4q4.043.408,4.044,1.011c0,.54-.136.879-.4,1.011h-.809q-4.047-.4-4.044-2.022v-.4q0-4.043,18.6-10.514.607-.4,1.415-3.235A29.229,29.229,0,0,1,117.071,9.1l-.2-.4h-.4l-6.875,3.842-3.842,1.213-3.033.2h-.809a16.984,16.984,0,0,1-3.235-.607h-.2l-1.415,1.011H95.436l-1.415-.809a6.426,6.426,0,0,0-1.415,1.415l-.607-.4v-.607c.941-1.482,1.618-2.224,2.022-2.224a3.316,3.316,0,0,1,2.022,1.213l.607.2.607-1.011L96.65,8.492l.2-.2h.2l1.82,2.831a3.3,3.3,0,0,0,2.426,1.011h4.044l.2-1.011v-.809q0-2.829-3.639-6.672V2.831c0-.133.2-.2.607-.2ZM95.436,32.351l.2.607-.809,4.65v.809l1.011,1.011,1.213-1.82c.133,0,.2.133.2.4a3.984,3.984,0,0,1-1.213,3.235h-.4q-2.024-1.015-2.022-2.426.8-6.468,1.82-6.47Zm.4,13.143q4.246,1.214,4.246,2.629-1.213,3.839-1.618,3.842h-.4q-1.417-.2-4.044-2.426v-.607q1.213-3.44,1.82-3.437Zm6.875-6.066v.4q7.478,3.839,9.705,6.268,6.265-2.834,12.132-5.055v-.4h-.4a181.346,181.346,0,0,0-19.006-1.617c-1.618,0-2.426.132-2.426.4Zm10.514-15.771h.809c.4,0,.739.607,1.011,1.82l-.4.607-1.618-.809q-1.417,1.213-2.426,7.886v.2h-.4c-.272,0-.607-.941-1.011-2.831q-1.213-2.018-2.426-2.022-2.426,0-2.426-1.415v-.4c.133-.537.607-.809,1.415-.809q1.82,0,4.246,4.044h.2q1.008-6.264,3.033-6.268ZM110.2,58.636c.133.941.4,1.415.809,1.415,1.077.4,1.618.942,1.618,1.618v.809q0,2.222-3.033,2.628h-.809a1.3,1.3,0,0,1-.809-1.213v-.4a6.312,6.312,0,0,1,2.224-4.853Zm-.607,2.629-.607,2.224,1.011.2c.941-.4,1.415-.743,1.415-1.011v-.4c0-.273-.607-.607-1.82-1.011ZM125.361,23.05q1.213,0,2.224,4.044v.4q-.2,1.82-1.618,1.82h-.607l-.809-.607h-.2q0,1.213-2.426,1.415a3.013,3.013,0,0,1-1.82-3.033v-.607c-.4,0-.606-.132-.606-.4v-.607l.809-1.011h.4l.607.809v.607c0,1.889.335,2.831,1.011,2.831q1.213-.2,1.213-1.011l-.809-3.235v-.2l.4-.607q.806.407,1.82,3.639l1.011.4.2-.2h.2l-1.213-3.437v-.4l.2-.607ZM128.192,64.3c1.078,0,1.618.132,1.618.4v.4q0,2.018-2.426,4.65l-.2,1.011h.4q2.625,0,8.088-5.055h.2v.607q0,2.426-7.278,6.672l-1.213.2c-1.081-.271-1.618-.606-1.618-1.011V70.767q0-1.416,2.224-4.044v-.4h-.2l-2.831.809v-.4q0-1.623,3.235-2.426Zm21.23.809h.2v.809Q148,67.934,138.908,72.588l-6.267,4.044h-.2l-.2-.4v-.606q1.617-2.024,9.1-6.268,5.656-3.033,8.088-4.246ZM145.783.2q1.616,0,1.617,1.82t-3.033,3.235h-1.213q-.607,1.417-1.011,1.415v-.2h-.4l.4-.607-.4-1.011h-.2L139.11,5.864l-.809-.607h-.607c0,.54-.474.809-1.416.809a5.818,5.818,0,0,1,1.416-2.426h1.213l1.011.607.607-.4-.4-1.011V1.415l.4-.2q.2,0,1.011,1.82l1.011.809Q144.563.2,145.781.2ZM142.75,9.1q5.658,9.1,5.661,11.323v.2h-.2q-2.228-1.82-3.033-1.82L147.6,33.16h.2q2.018-.4,8.694-4.853l.4-.607-.4-1.213q.4-4.042,1.82-4.044,2.222,0,4.246,3.639V27.5l-.809.809h-.4l-1.213-.607h-1.415q-.2,1.62-9.3,6.066l-1.415,1.011a87.125,87.125,0,0,1,1.415,15.367q-.407,3.436-.809,3.437-.607,0-2.224-12.941-2.631-13.344-4.246-26.082a3.92,3.92,0,0,1-.809-2.022A4.277,4.277,0,0,1,142.748,9.1Zm84.719,19.815q4.853,4.653,4.853,5.864v.2h-.607l-1.213-.4v.2q0,.81,3.033,6.874a19.678,19.678,0,0,1,1.213,4.246v2.224q0,4.246-4.044,5.055h-.4a12.993,12.993,0,0,1-5.661-3.033q-.607,4.246-4.449,4.246h-1.618q-2.834-2.427-3.438-2.427a6.651,6.651,0,0,1-6.672,4.246q-4.047,0-6.672-6.672l-.607-.607h-.809q-1.214,0-4.246,3.639a3.923,3.923,0,0,0-.809,2.022q0,1.617,7.077,4.246a3.425,3.425,0,0,1,1.82,2.831v.2c0,1.75-.271,2.629-.809,2.629a56.361,56.361,0,0,0-7.077-1.82h-1.213q-5.866,0-15.771,11.525-3.44,2.426-5.459,2.427h-1.213a7.769,7.769,0,0,1-4.448-2.224,12.805,12.805,0,0,1-1.618-4.853q0-4.247,4.246-10.312l2.629-3.033v-.4a11.04,11.04,0,0,1-3.033-5.055h-.4q0,2.223-2.224,5.46-3.639,3.436-6.875,3.437-4.654,0-6.875-5.864l-.4-4.853.607-5.257q-1.014,0-2.831,10.717-1.62,4.852-3.437,4.853H147.4q-1.62,0-3.842-3.438a30.924,30.924,0,0,1-1.415-5.661q.4-5.459,1.213-5.46h.2l-.2,2.224q0,8.084,3.235,9.3H147.6q2.223,0,3.842-9.705,2.223-8.09,4.449-8.088h.606l.2.2V39.83a77.486,77.486,0,0,0-1.213,8.694q0,4.649,2.831,6.066a5.792,5.792,0,0,0,2.629.607h.2q4.445,0,7.481-5.055l.4-.809q0-2.63-2.427-10.312V33.764h.2v-.4q2.018,0,4.448,12.132,1.412,6.468,5.661,6.47h.2a7.812,7.812,0,0,0,4.044-1.213v-.607q0-1.213-5.46-12.94a11.237,11.237,0,0,1-.4-2.629v-.607c0-1.618.133-2.559.4-2.831a10.125,10.125,0,0,1,4.65,5.661l-.2.4h-.4l-1.213-.4q4.649,8.288,4.65,13.345v.4q0,5.052-4.853,6.066H175.3q-1.014,0-3.033,3.033-2.024,2.019-4.044,7.278l-.2,1.415v1.415q0,4.042,4.044,4.044,3.232,0,11.525-10.311a38.062,38.062,0,0,1,10.11-5.46l-.4-2.224v-.4q0-5.057,4.853-9.908a5.143,5.143,0,0,1,3.437-1.415h.607a6.23,6.23,0,0,1,2.426,3.639q1.412,3.839,4.246,3.842h1.213q3.436,0,6.268-5.459l1.011-.607h.4l-.2,1.618v1.213a6.578,6.578,0,0,0,3.639,1.415q2.626,0,3.842-4.65l1.011-.607.2.2V46.1h-.2v.2a6.577,6.577,0,0,0,4.65,2.224h.606l1.416-.2v-.4q0-1.213-3.842-9.5a23.685,23.685,0,0,0-2.426-5.661V31.54c.131-1.75.47-2.629,1.011-2.629ZM143.761,4.044q2.222-.4,2.224-1.618v-.4h-.607q-1.213,0-1.618,2.022Zm8.694,2.426a11.766,11.766,0,0,1,6.268,5.257,11.009,11.009,0,0,1,.809,3.235v.809l.4.4,12.94-5.864,5.661-1.82.4.607v.2q-.607,1.015-12.334,5.257-6.473,3.033-14.558,7.481h-.2V21.23q0-1.616,5.459-3.639l1.415-1.213V15.165q0-3.436-6.268-7.481l-.4-1.011.4-.2Zm5.257,19.411v.2l1.213.4V25.274l-.4-.4c-.541,0-.809.338-.809,1.011Zm2.426-.607v.809l.2.4h.809C161.149,25.679,160.811,25.274,160.138,25.274ZM163.98,3.639h.4c.268,0,.4.272.4.809a8.2,8.2,0,0,1,2.426,1.618Q165.8,9.507,163.778,9.5q-1.213,0-1.213-2.426,1.213-3.436,1.415-3.437Zm-.2,2.426-.2,1.618h.809l.607-.2v-.4q0-1.009-1.213-1.011ZM174.9,19.006h.2q2.018,2.228,2.022,3.842v.809c0,1.08-.4,1.618-1.213,1.618H175.3c-.4,0-.743-.268-1.011-.809h-.2q-1.621,2.024-2.831,2.022-1.819,0-2.022-2.426V22.039l-1.011.809-.4-.4v-.4q0-1.82,2.426-2.426h.607a13.065,13.065,0,0,0-.607,3.437q.4,1.417,1.415,1.415a1.811,1.811,0,0,0,1.213-1.213l-.607-2.831V19.411h.2q.4,0,2.022,3.437l.4.2h1.011l-1.415-3.639.4-.4Zm0,43.472h.2v.606q0,.4,1.82,1.213l.2.809v1.011q0,1.616-2.831,2.427-1.416-.408-1.415-1.416v-.606a5.359,5.359,0,0,1,2.022-4.044Zm-.4,2.224-.607,1.618v.606H175.1q1.213-.407,1.213-1.213L174.7,64.7h-.2ZM182.38.2,184.4,3.235A7.6,7.6,0,0,1,187.03,0h1.415q.4,0,.809,1.82,0,1.417-2.629,3.033A3.668,3.668,0,0,0,184,6.066l-.4-1.618-2.426,1.415-1.213-1.011h-.607l-1.011,1.011h-.607V5.257q0-1.213,1.618-2.022h1.011l1.011.809a1.084,1.084,0,0,0,1.213-.809l-.4-1.82V.607l.2-.4Zm1.213,7.279q.806.607,3.842,6.875A10.927,10.927,0,0,1,188.85,18.6v.2l-.2.2h-.2l-2.426-2.224-.2.809V18.2l2.629,14.962q2.019,12.33,2.022,14.76v.2q-.407,8.084-1.011,8.088h-.809V55.2q0-5.459-5.055-35.384-.607-8.288-1.415-8.29c.131-2.695.607-4.044,1.415-4.044Zm3.842-6.066c-1.081.809-1.618,1.485-1.618,2.022q2.019-.607,2.022-1.415l-.4-.607Zm13.345,65.309h.4v.4q0,1.413-4.246,3.033-10.312,6.066-10.514,6.066l-.4-.606q0-1.214,2.831-2.629,5.656-3.238,11.929-6.268Zm2.629-39.63h.4a4.182,4.182,0,0,1,1.213,1.618q-.2.81-.606.809l-1.011-.809h-.2q-1.621,0-2.426,8.492h-.4a9.469,9.469,0,0,1-1.213-2.629q-1.621-2.829-2.426-2.831l-.4.607h-.4c-1.485,0-2.224-.673-2.224-2.022V29.52c0-.132.4-.268,1.213-.4q2.626,0,5.46,4.853.8-6.871,3.033-6.875ZM199.162,16.58A1.437,1.437,0,0,1,200.173,18v1.011l-.4.4h-.4L198.353,18.2l-.809.4v1.011l1.011.2h.607L202.4,18.8a.358.358,0,0,1,.4.4q0,.607-3.639,2.629a2.316,2.316,0,0,1-1.82,1.011h-.2l.4-1.618-1.415-1.213v-.4q0-2.018,3.033-3.033Zm22.443,44.483h.2l.4.2v1.82q0,1.413-2.628,1.416a3.433,3.433,0,0,1-2.831,1.82h-.4q-1.213-1.213-1.618-1.213-.81,0-5.864,6.066a42.249,42.249,0,0,1-9.1,5.864l-.607.4h-.809v-.4q0-.407,7.077-4.853,2.018-1.62,8.492-8.088a2.182,2.182,0,0,1,1.618-.606h.4l1.618,1.011a2.992,2.992,0,0,0,1.415-2.831h.4l.809,1.213H221.2v-.2c0-1.082.131-1.618.4-1.618ZM207.856,35.586v.4l-1.213,3.639V40.64a1.449,1.449,0,0,0,.809,1.416h.4l1.213-1.416h.2l.4.4q-.81,3.436-2.426,3.437a3.013,3.013,0,0,1-1.618-2.629v-.809a8.92,8.92,0,0,1,2.224-5.459Zm11.929-18.2h.4A1.906,1.906,0,0,1,221.2,18.6v.809l-.4.4h-.2L219.583,18.6a5.2,5.2,0,0,0-2.224,4.448l-1.011,3.842h-.2q-1.819-5.255-2.022-5.257h-.607l-.4.4h-.2q-2.426-.806-2.426-2.224v-.809a2.183,2.183,0,0,1,1.213-.4q3.033,0,4.448,5.055h.2q.607-6.264,3.437-6.268Zm-1.213,12.94c1.75.136,2.628.474,2.628,1.011v.2q0,1.82-2.831,4.853-3.44,2.426-5.257,2.426v-.4a17.571,17.571,0,0,1,3.842-3.437v-.2l-.607-.2q-4.246.408-4.246.607h-.4l-.4-.2v-.4q1.213-3.436,2.629-3.437l4.65-.809ZM214.326,8.29q0,1.417.809,1.415,2.019.811,2.022,2.022,0,1.62-2.628,2.831h-.809c-.809,0-1.349-.537-1.618-1.618q1.41-4.445,2.224-4.65Zm-.607,2.629-.4,2.224v.2h1.011q.806,0,1.82-1.213v-.4Zm20.219,55,.2.607q0,1.213-10.312,5.055-3.64,2.018-4.246,2.022l-.2-.2v-.809q.607-1.214,10.716-5.055a10.247,10.247,0,0,1,3.842-1.618Zm-4.246-8.9q3.839,1.213,3.842,2.831a7.8,7.8,0,0,1-1.618,3.64q-3.237-1.417-4.246-3.235,1.615-3.238,2.022-3.235Z" transform="translate(-0.002)" fill="#404a31"/></svg>